<?xml version="1.0" standalone="no"?>
<!DOCTYPE svg PUBLIC "-//W3C//DTD SVG 20010904//EN"
 "http://www.w3.org/TR/2001/REC-SVG-20010904/DTD/svg10.dtd">
<svg version="1.0" xmlns="http://www.w3.org/2000/svg"
 width="800.000000pt" height="400.000000pt" viewBox="0 0 800.000000 400.000000"
 preserveAspectRatio="xMidYMid meet">

<g transform="translate(0.000000,400.000000) scale(0.100000,-0.100000)"
fill="#000000" stroke="none">
<path d="M5335 3930 c-3 -5 -16 -10 -29 -10 -12 0 -37 -11 -56 -25 -25 -18
-47 -25 -80 -25 -81 0 -141 -25 -181 -76 -21 -26 -45 -64 -55 -85 -11 -23 -26
-39 -36 -39 -10 0 -18 -6 -18 -12 0 -15 -32 -45 -72 -71 -16 -10 -28 -26 -28
-37 0 -10 -4 -21 -9 -25 -5 -3 -12 -20 -16 -38 -8 -39 -101 -197 -126 -215
-11 -7 -26 -28 -35 -45 -24 -46 -54 -74 -106 -96 -34 -14 -54 -33 -83 -77 -45
-68 -67 -126 -60 -157 4 -17 -3 -28 -27 -45 -72 -50 -193 -112 -221 -112 -16
0 -36 -8 -44 -17 -12 -16 -13 -14 -7 17 8 45 81 230 98 250 7 8 19 31 26 50 8
19 24 51 37 70 13 19 37 55 53 79 34 52 32 55 -50 72 -37 8 -64 21 -82 41 -15
15 -33 28 -41 28 -16 0 -51 -49 -88 -123 -33 -67 -82 -123 -98 -112 -7 4 -19
23 -27 42 -18 42 -66 72 -114 71 -20 0 -51 3 -69 7 -34 7 -71 -14 -71 -42 0
-22 -28 -26 -56 -8 -33 22 -69 13 -91 -23 -10 -15 -60 -72 -112 -127 -52 -55
-110 -125 -129 -155 -38 -61 -81 -110 -95 -110 -10 0 -31 -19 -108 -95 -31
-30 -49 -57 -52 -78 -3 -17 -11 -51 -17 -75 -11 -36 -10 -45 3 -60 9 -10 21
-39 27 -66 14 -64 25 -83 52 -92 13 -4 34 -15 48 -26 15 -12 33 -17 46 -14 29
8 72 -12 79 -35 11 -32 115 -38 153 -9 16 13 33 17 52 13 25 -4 37 2 87 49 32
30 88 75 124 101 36 25 71 58 77 72 23 49 32 27 32 -77 0 -57 4 -109 9 -116 6
-11 18 -10 62 4 49 16 106 59 206 155 12 12 33 27 45 34 13 6 33 18 45 25 34
22 39 5 15 -48 -12 -26 -24 -64 -27 -84 -4 -34 -27 -87 -121 -269 -38 -75 -41
-91 -18 -113 24 -25 40 -19 73 26 30 41 31 41 31 15 0 -35 12 -34 71 3 26 17
65 34 86 37 55 8 61 17 62 82 0 32 9 83 19 113 19 55 27 64 148 172 43 38 66
83 104 211 59 193 78 222 166 244 27 7 64 19 82 27 18 8 38 14 45 14 7 0 35
11 63 23 27 13 74 29 105 35 54 10 91 26 157 67 40 25 40 35 3 35 -34 0 -47
13 -28 28 6 6 42 26 80 45 56 29 75 34 112 30 64 -8 91 2 147 55 69 64 108
142 54 106 -35 -22 -130 -43 -199 -44 -37 0 -72 -7 -97 -20 -21 -11 -74 -33
-117 -51 -43 -17 -86 -38 -95 -46 -35 -31 -218 -81 -218 -59 0 14 64 122 98
165 58 73 97 146 121 226 24 80 77 152 104 142 13 -5 17 -20 17 -70 0 -68 -8
-83 -68 -144 -33 -32 -33 -34 -18 -58 24 -37 60 -32 151 21 47 27 98 48 123
51 32 4 42 10 42 24 0 11 6 19 14 19 15 0 59 92 76 162 10 40 10 53 -3 80 -29
62 -45 113 -52 160 -4 32 -12 51 -25 58 -24 13 -47 13 -55 0z m-1732 -976 c35
-12 47 -21 47 -36 0 -28 -123 -142 -189 -175 -31 -15 -58 -29 -59 -30 -2 -1
-1 -11 3 -22 6 -20 11 -21 72 -15 64 7 65 6 58 -15 -8 -25 2 -27 52 -6 45 19
43 19 43 -6 0 -39 -105 -130 -166 -143 -19 -4 -37 -18 -48 -36 -13 -23 -24
-30 -47 -30 -17 0 -40 -5 -52 -12 -12 -7 -37 -13 -54 -13 -30 -1 -33 1 -33 29
0 17 18 65 39 106 20 41 57 112 80 158 38 75 180 262 199 262 5 0 29 -7 55
-16z"/>
<path d="M3346 3786 c-3 -13 -33 -55 -66 -95 -33 -39 -60 -76 -60 -81 0 -5
-13 -23 -30 -42 -16 -18 -37 -54 -46 -80 -16 -49 -27 -65 -131 -180 -35 -38
-63 -78 -63 -87 0 -23 -71 -131 -86 -131 -7 0 -13 30 -17 81 -3 52 -11 87 -20
96 -12 12 -132 52 -159 53 -5 0 -8 -9 -8 -20 0 -24 -8 -25 -60 -4 -52 21 -93
14 -157 -25 -28 -17 -57 -31 -64 -31 -8 0 -20 -9 -27 -20 -7 -11 -17 -20 -24
-20 -6 0 -26 -11 -44 -25 -18 -14 -39 -25 -47 -25 -8 0 -38 -27 -66 -59 -46
-53 -58 -61 -108 -72 -39 -9 -70 -24 -100 -51 -24 -21 -51 -38 -58 -38 -21 0
-55 -41 -55 -66 0 -14 -13 -33 -35 -50 -26 -20 -39 -41 -51 -81 -14 -50 -14
-56 0 -72 9 -10 16 -23 16 -31 0 -7 5 -30 12 -51 8 -30 16 -39 33 -39 14 0 43
-21 75 -55 30 -30 57 -52 62 -49 10 7 81 -15 89 -27 3 -5 41 -4 85 1 43 6 97
12 120 14 26 1 73 20 129 50 95 51 99 51 111 -10 3 -18 1 -41 -6 -53 -14 -28
8 -67 57 -101 32 -22 38 -23 80 -12 27 8 65 10 95 6 l51 -7 -7 54 c-21 163
-21 161 18 241 26 54 52 90 94 129 33 30 71 73 85 96 14 23 31 44 37 48 6 4
24 33 40 65 16 32 35 62 41 66 6 3 22 30 34 59 21 47 39 72 133 185 16 19 37
49 46 67 9 18 25 37 36 43 11 6 31 33 45 61 14 27 44 66 66 86 40 36 81 97 94
141 6 20 3 22 -25 22 -30 0 -32 2 -25 28 4 15 8 32 9 39 0 7 -31 28 -71 47
l-71 34 -6 -22z m-776 -734 c10 -30 12 -47 4 -59 -14 -22 -131 -82 -174 -88
-40 -6 -68 -21 -57 -31 3 -4 30 -9 59 -11 73 -6 88 -12 66 -24 -10 -6 -18 -19
-18 -31 0 -17 4 -20 30 -14 58 11 18 -38 -44 -55 -20 -5 -36 -14 -36 -20 0
-17 -52 -30 -119 -30 -38 0 -76 -6 -93 -15 -16 -8 -44 -14 -61 -12 -28 3 -32
7 -35 34 -2 22 6 44 28 75 17 24 46 67 65 94 47 67 65 85 87 85 11 0 45 25 77
55 64 61 131 96 176 93 26 -3 32 -9 45 -46z"/>
<path d="M6224 3660 c-11 -4 -36 -27 -55 -50 -31 -37 -40 -42 -81 -43 -33 -1
-54 4 -75 19 -42 31 -138 64 -187 64 -34 0 -53 -8 -97 -40 -62 -47 -65 -52
-44 -70 25 -21 17 -39 -20 -46 -45 -8 -88 -59 -74 -86 7 -12 22 -18 47 -18 21
0 54 -11 77 -25 22 -14 52 -25 67 -25 54 0 44 -25 -35 -84 -26 -20 -51 -36
-56 -36 -8 0 -67 -54 -200 -183 -66 -65 -219 -239 -296 -337 -47 -60 -126
-151 -174 -200 -24 -25 -48 -57 -53 -72 -5 -15 -34 -45 -63 -67 -30 -23 -59
-51 -66 -64 -6 -12 -25 -34 -43 -49 l-31 -27 42 -1 c33 0 51 8 92 40 28 22 52
40 55 40 3 0 6 -10 8 -22 4 -27 24 -32 85 -23 27 4 47 13 50 23 4 9 38 48 77
87 39 39 125 127 191 195 65 69 149 147 185 174 36 27 67 53 69 59 2 5 33 39
68 76 36 36 73 78 82 92 43 68 203 189 249 189 7 0 40 27 74 60 75 73 99 82
136 47 43 -40 59 -44 222 -57 94 -7 179 -19 214 -31 33 -10 75 -19 94 -19 28
0 32 3 27 19 -8 26 26 31 149 24 74 -5 97 -3 92 5 -4 7 -12 12 -18 12 -5 0
-55 18 -109 40 -55 22 -110 40 -123 40 -13 0 -29 7 -36 15 -7 8 -18 15 -24 15
-7 0 -39 15 -72 32 -65 36 -151 74 -204 91 -19 6 -36 12 -38 13 -2 1 7 18 18
37 12 20 20 46 18 59 -3 20 -8 23 -53 23 -48 0 -50 1 -47 27 6 52 -54 83 -114
58z"/>
<path d="M5886 2718 c-3 -7 -7 -32 -9 -56 -3 -23 -13 -55 -23 -70 -10 -15 -17
-31 -16 -36 12 -38 -132 -223 -190 -245 -29 -11 -88 -92 -88 -120 0 -10 -7
-24 -15 -31 -8 -7 -15 -18 -15 -25 0 -8 -10 -26 -22 -42 -33 -40 -48 -70 -48
-92 0 -24 -45 -41 -109 -41 -81 0 -88 -5 -95 -66 -4 -31 -2 -63 4 -74 14 -25
6 -41 -35 -68 -42 -27 -45 -49 -7 -58 35 -9 52 -22 52 -43 0 -22 -61 -81 -83
-81 -9 0 -17 -4 -17 -9 0 -13 -76 -60 -122 -77 -22 -8 -67 -32 -100 -54 -73
-48 -98 -52 -98 -12 0 34 32 79 105 149 56 54 71 93 44 120 -9 9 -9 20 0 44
18 52 14 99 -11 123 -13 12 -32 35 -43 50 l-20 27 -40 -22 c-22 -12 -59 -48
-82 -79 -24 -32 -58 -65 -78 -74 -19 -10 -85 -66 -146 -125 -61 -60 -123 -115
-138 -122 -14 -7 -66 -42 -114 -77 -71 -51 -91 -61 -102 -52 -12 10 -12 17 4
48 10 21 21 54 25 74 4 21 13 41 20 45 26 15 46 72 45 125 -1 29 2 65 6 80 6
24 4 27 -29 36 -20 6 -48 20 -62 31 -19 15 -34 19 -53 15 -33 -8 -61 -32 -61
-53 0 -9 -7 -29 -15 -45 -8 -15 -15 -33 -15 -38 0 -6 -26 -38 -58 -73 -64 -68
-115 -151 -126 -204 -3 -19 -13 -42 -21 -50 -29 -31 -169 -217 -189 -251 -11
-19 -35 -54 -53 -78 -27 -35 -33 -53 -33 -92 0 -45 2 -49 30 -59 30 -10 31
-11 16 -39 -14 -27 -14 -31 2 -45 15 -14 33 -15 106 -10 81 6 93 9 147 45 32
22 74 44 92 49 24 6 38 19 50 43 16 34 87 113 217 243 71 71 222 176 231 161
3 -5 2 -36 -3 -70 -6 -46 -15 -69 -38 -95 -30 -33 -30 -35 -30 -153 l0 -119
30 -16 c16 -8 35 -15 42 -15 7 0 18 -10 23 -22 16 -36 62 -35 114 2 30 22 51
50 71 93 20 40 44 72 72 94 24 19 75 64 113 102 71 69 102 91 129 91 12 0 12
-9 -6 -61 -11 -33 -27 -63 -34 -66 -8 -3 -14 -16 -14 -29 0 -14 -7 -27 -15
-30 -8 -4 -12 -10 -9 -15 3 -6 -1 -20 -8 -32 -8 -12 -22 -44 -32 -72 -10 -27
-29 -70 -41 -95 -52 -105 -75 -156 -75 -167 0 -6 -13 -26 -30 -44 -16 -18 -37
-49 -46 -69 -23 -48 -102 -157 -126 -174 -25 -18 -17 -32 22 -39 20 -5 34 -15
40 -32 12 -31 17 -31 47 -3 23 21 23 21 38 2 8 -10 15 -28 15 -39 0 -11 6 -30
14 -43 11 -21 14 -22 25 -8 8 9 23 42 35 74 43 114 83 177 147 233 34 29 68
68 75 86 8 18 27 47 42 65 16 18 52 80 80 138 27 58 66 132 86 164 20 33 36
72 36 86 0 17 14 39 41 65 22 22 55 60 72 85 17 25 50 64 74 87 24 23 43 50
43 59 0 24 62 10 112 -27 23 -16 47 -29 54 -29 7 0 25 -11 41 -24 28 -23 59
-33 143 -43 25 -3 52 -10 60 -17 8 -7 37 -23 63 -37 27 -13 59 -36 72 -51 13
-15 45 -41 72 -58 46 -30 51 -31 125 -24 63 5 82 3 102 -10 34 -22 52 -20 70
6 30 42 21 55 -67 98 -46 22 -90 40 -98 40 -23 0 -185 156 -199 192 -23 55
-85 140 -154 208 -36 36 -66 68 -66 72 0 10 105 70 160 92 25 10 52 24 60 31
8 7 44 24 80 38 36 13 92 41 125 61 34 20 73 36 90 36 31 0 75 24 75 41 0 5
-13 9 -30 9 -16 0 -30 5 -30 10 0 6 7 10 15 10 8 0 15 4 15 10 0 20 131 70
182 70 45 0 57 5 117 52 94 74 153 128 138 128 -6 0 -46 -10 -87 -22 -41 -12
-106 -22 -145 -23 -38 0 -83 -6 -98 -13 -16 -7 -40 -12 -55 -12 -15 0 -47 -10
-72 -21 -55 -26 -151 -48 -183 -42 -14 3 -39 -6 -64 -22 -23 -15 -58 -29 -79
-30 -22 -2 -67 -12 -101 -24 -87 -29 -86 -30 -78 32 8 57 25 96 50 117 10 8
21 23 26 35 5 11 21 35 35 54 13 19 34 67 45 105 21 74 22 76 53 120 16 22 18
34 10 64 -12 49 -49 57 -65 16 -14 -40 -29 -14 -29 52 0 70 -26 104 -81 104
-23 0 -41 -5 -43 -12z"/>
<path d="M2088 2048 c-21 -23 -38 -45 -38 -49 0 -4 -9 -10 -19 -14 -11 -3 -23
-14 -26 -24 -5 -18 -94 -81 -113 -81 -5 0 -29 -32 -52 -70 -23 -39 -46 -73
-51 -76 -5 -3 -13 6 -18 19 -6 14 -15 28 -22 32 -6 4 -20 27 -30 51 -25 56
-34 60 -63 30 -14 -16 -34 -26 -51 -26 -16 0 -41 -12 -62 -30 -19 -18 -45 -30
-61 -30 -47 0 -114 -51 -82 -62 6 -2 16 -37 21 -78 6 -41 15 -79 20 -84 5 -6
9 -22 9 -36 0 -66 60 -190 92 -190 7 0 9 -18 6 -51 -4 -39 -11 -56 -31 -73
-23 -19 -26 -31 -33 -116 -4 -52 -8 -175 -10 -272 -1 -98 -7 -200 -13 -228 -6
-28 -11 -71 -11 -96 0 -25 -5 -54 -10 -64 -6 -11 -13 -52 -15 -92 -8 -120 -21
-232 -29 -251 -13 -28 10 -20 74 25 l59 41 20 -24 c24 -29 45 -20 72 31 10 18
35 50 55 71 36 37 37 39 31 96 -6 53 1 108 33 266 6 27 10 67 10 90 0 50 28
188 40 201 5 5 19 -2 32 -16 60 -64 238 -48 309 28 13 14 34 24 50 24 19 0 32
7 40 23 7 12 37 49 68 83 54 59 68 85 195 344 20 41 36 89 36 105 0 30 48 134
80 170 27 31 29 47 20 143 -6 64 -16 108 -36 152 -27 58 -31 61 -81 76 -31 9
-57 24 -64 35 -7 14 -19 19 -37 17 -15 -2 -32 4 -39 12 -10 13 -14 12 -27 -6
-23 -33 -62 -35 -110 -8 -62 36 -92 32 -138 -18z m192 -248 c6 -11 9 -24 6
-29 -3 -4 -1 -36 5 -70 9 -49 9 -69 -1 -89 -7 -15 -12 -37 -11 -50 1 -12 -9
-46 -23 -75 -17 -36 -25 -70 -25 -107 0 -30 -5 -68 -11 -85 -14 -38 -64 -90
-101 -106 -16 -6 -29 -15 -29 -20 0 -14 -26 -11 -38 4 -8 9 -9 31 -3 64 6 40
21 68 69 132 54 71 79 121 55 109 -41 -20 -110 -49 -129 -54 -19 -5 -27 0 -41
24 -10 17 -28 36 -40 41 -29 13 -29 32 1 95 28 59 58 90 138 140 31 20 60 41
63 47 11 16 68 49 87 49 10 0 22 -9 28 -20z m-343 -368 c7 -4 15 -21 19 -38 4
-22 1 -34 -14 -48 -20 -17 -21 -17 -37 14 -13 26 -15 38 -6 56 11 25 19 28 38
16z"/>
<path d="M2930 1776 c-38 -25 -113 -125 -125 -166 -4 -14 -33 -72 -65 -130
-103 -184 -125 -237 -125 -307 0 -34 -2 -63 -5 -65 -3 -2 -28 -21 -56 -41 -56
-40 -131 -145 -135 -187 -5 -59 0 -70 31 -70 29 0 70 -29 70 -50 0 -5 9 -10
20 -10 12 0 38 -9 60 -20 45 -23 72 -25 103 -8 29 15 102 72 150 117 20 20 88
70 149 111 75 51 117 86 129 108 17 32 46 61 62 62 13 0 -5 -83 -28 -130 -13
-25 -35 -58 -49 -73 -27 -30 -33 -47 -15 -47 7 0 8 -16 3 -46 l-7 -47 29 6
c16 3 47 11 69 17 22 7 63 12 92 11 51 -2 53 -1 79 41 15 24 38 70 51 102 26
68 49 106 74 123 9 7 27 30 40 50 12 21 30 47 40 58 17 19 79 160 79 179 0 5
14 25 30 45 88 104 110 134 110 150 0 9 5 22 11 28 9 9 19 49 22 98 2 16 -3
19 -24 17 -22 -2 -28 4 -42 38 -14 38 -18 40 -57 40 -49 0 -96 -22 -105 -49
-3 -11 -28 -32 -54 -48 -30 -17 -85 -70 -142 -135 -51 -60 -96 -108 -100 -108
-4 0 -23 -15 -42 -32 -69 -66 -131 -118 -139 -118 -5 0 -20 -7 -33 -16 -13 -8
-53 -26 -89 -38 -81 -29 -80 -32 -27 125 24 74 51 132 73 161 49 64 81 133 73
158 -10 32 -41 44 -67 25 -33 -23 -37 -20 -40 38 -2 43 -6 52 -23 55 -11 1
-36 -8 -55 -22z"/>
<path d="M6557 962 c6 -4 13 -25 16 -47 l4 -40 1 42 c1 23 8 44 15 46 6 3 -1
6 -18 6 -17 0 -25 -3 -18 -7z"/>
<path d="M6628 964 c-5 -4 -7 -26 -7 -48 1 -39 2 -39 9 -11 l7 30 7 -27 c5
-16 12 -28 16 -28 4 0 11 12 15 28 7 25 8 25 15 7 7 -16 9 -12 9 18 1 45 -6
47 -20 7 -14 -38 -24 -38 -35 1 -5 17 -12 27 -16 23z"/>
</g>
</svg>
